<?xml version="1.0" encoding="UTF-8" standalone="no"?>
<svg
   xmlns:dc="http://purl.org/dc/elements/1.1/"
   xmlns:cc="http://creativecommons.org/ns#"
   xmlns:rdf="http://www.w3.org/1999/02/22-rdf-syntax-ns#"
   xmlns:svg="http://www.w3.org/2000/svg"
   xmlns="http://www.w3.org/2000/svg"
   xmlns:xlink="http://www.w3.org/1999/xlink"
   xmlns:sodipodi="http://sodipodi.sourceforge.net/DTD/sodipodi-0.dtd"
   xmlns:inkscape="http://www.inkscape.org/namespaces/inkscape"
   width="129.85094mm"
   height="200.47711mm"
   viewBox="0 0 129.85094 200.47711"
   version="1.1"
   id="svg8"
   sodipodi:docname="logo.svg"
   inkscape:version="1.0.2 (e86c870879, 2021-01-15)">
  <defs
     id="defs2">
    <linearGradient
       inkscape:collect="always"
       id="linearGradient976">
      <stop
         style="stop-color:#551544;stop-opacity:1"
         offset="0"
         id="stop972" />
      <stop
         style="stop-color:#1b252e;stop-opacity:1"
         offset="1"
         id="stop974" />
    </linearGradient>
    <linearGradient
       inkscape:collect="always"
       xlink:href="#linearGradient976"
       id="linearGradient978"
       x1="352.28519"
       y1="785.90814"
       x2="356.92319"
       y2="456.35739"
       gradientUnits="userSpaceOnUse" />
  </defs>
  <sodipodi:namedview
     id="base"
     pagecolor="#ffffff"
     bordercolor="#666666"
     borderopacity="1.0"
     inkscape:pageopacity="0.0"
     inkscape:pageshadow="2"
     inkscape:zoom="0.35"
     inkscape:cx="1465.2916"
     inkscape:cy="542.92314"
     inkscape:document-units="mm"
     inkscape:current-layer="layer1"
     inkscape:document-rotation="0"
     showgrid="false"
     inkscape:window-width="3436"
     inkscape:window-height="1401"
     inkscape:window-x="1920"
     inkscape:window-y="18"
     inkscape:window-maximized="1"
     fit-margin-top="0"
     fit-margin-left="0"
     fit-margin-right="0"
     fit-margin-bottom="0" />
  <metadata
     id="metadata5">
    <rdf:RDF>
      <cc:Work
         rdf:about="">
        <dc:format>image/svg+xml</dc:format>
        <dc:type
           rdf:resource="http://purl.org/dc/dcmitype/StillImage" />
        <dc:title></dc:title>
      </cc:Work>
    </rdf:RDF>
  </metadata>
  <g
     inkscape:label="Ebene 1"
     inkscape:groupmode="layer"
     id="layer1"
     transform="translate(-32.627361,-43.374614)">
    <path
       style="color:#000000;font-style:normal;font-variant:normal;font-weight:normal;font-stretch:normal;font-size:medium;line-height:normal;font-family:sans-serif;font-variant-ligatures:normal;font-variant-position:normal;font-variant-caps:normal;font-variant-numeric:normal;font-variant-alternates:normal;font-variant-east-asian:normal;font-feature-settings:normal;font-variation-settings:normal;text-indent:0;text-align:start;text-decoration:none;text-decoration-line:none;text-decoration-style:solid;text-decoration-color:#000000;letter-spacing:normal;word-spacing:normal;text-transform:none;writing-mode:lr-tb;direction:ltr;text-orientation:mixed;dominant-baseline:auto;baseline-shift:baseline;text-anchor:start;white-space:normal;shape-padding:0;shape-margin:0;inline-size:0;clip-rule:nonzero;display:inline;overflow:visible;visibility:visible;opacity:1;isolation:auto;mix-blend-mode:normal;color-interpolation:sRGB;color-interpolation-filters:linearRGB;solid-color:#000000;solid-opacity:1;vector-effect:none;fill:#000000;fill-opacity:1;fill-rule:nonzero;stroke:none;stroke-width:0.999999;stroke-linecap:butt;stroke-linejoin:miter;stroke-miterlimit:4;stroke-dasharray:none;stroke-dashoffset:0;stroke-opacity:1;color-rendering:auto;image-rendering:auto;shape-rendering:auto;text-rendering:auto;enable-background:accumulate;stop-color:#000000;stop-opacity:1"
       d="m 371.74805,698.62891 c 6.0703,0.10318 11.35858,0.21403 11.75195,0.24804 0.39334,0.0331 2.24471,1.40261 4.11523,3.04493 4.76595,4.18454 6.3015,10.02637 4.19532,15.96484 -1.73008,4.87789 -3.60377,7.00435 -8.32032,9.44336 -2.23491,1.15574 -5.86517,1.60547 -12.94335,1.60547 -8.21345,0 -10.57561,-0.3715 -14.30079,-2.25 -7.72108,-3.89352 -9.84169,-11.87791 -5.55468,-20.91211 2.70516,-5.70074 7.6364,-7.37282 21.05664,-7.14453 z"
       transform="scale(0.26458333)"
       id="path952" />
    <path
       style="color:#000000;font-style:normal;font-variant:normal;font-weight:normal;font-stretch:normal;font-size:medium;line-height:normal;font-family:sans-serif;font-variant-ligatures:normal;font-variant-position:normal;font-variant-caps:normal;font-variant-numeric:normal;font-variant-alternates:normal;font-variant-east-asian:normal;font-feature-settings:normal;font-variation-settings:normal;text-indent:0;text-align:start;text-decoration:none;text-decoration-line:none;text-decoration-style:solid;text-decoration-color:#000000;letter-spacing:normal;word-spacing:normal;text-transform:none;writing-mode:lr-tb;direction:ltr;text-orientation:mixed;dominant-baseline:auto;baseline-shift:baseline;text-anchor:start;white-space:normal;shape-padding:0;shape-margin:0;inline-size:0;clip-rule:nonzero;display:inline;overflow:visible;visibility:visible;opacity:1;isolation:auto;mix-blend-mode:normal;color-interpolation:sRGB;color-interpolation-filters:linearRGB;solid-color:#000000;solid-opacity:1;vector-effect:none;fill:url(#linearGradient978);fill-opacity:1;fill-rule:nonzero;stroke:none;stroke-width:0.999999;stroke-linecap:butt;stroke-linejoin:miter;stroke-miterlimit:4;stroke-dasharray:none;stroke-dashoffset:0;stroke-opacity:1;color-rendering:auto;image-rendering:auto;shape-rendering:auto;text-rendering:auto;enable-background:accumulate;stop-color:#000000;stop-opacity:1"
       d="m 219.51172,413.74023 c -5.14475,0.24071 -8.77239,1.60419 -9.7461,4.03711 -0.36506,0.91215 -1.27283,8.78614 -2.01562,17.4961 -0.23286,9.81476 0.49159,24.98828 0.99023,32.7539 1.20488,18.14676 3.07017,31.21609 7.05274,49.40821 6.7844,30.99069 21.98588,66.66404 40.49219,95.02539 0.82499,1.26433 2.8012,4.47563 4.39257,7.13672 4.9493,8.27629 25.94536,36.54028 31.26172,42.08398 2.348,2.44842 7.18743,11.83317 8.33985,16.17188 0.90557,3.41 0.89581,5.40398 -0.041,8.75 -0.66731,2.38348 -1.52124,4.33203 -1.89844,4.33203 -0.37731,0 -1.73325,2.52482 -3.01172,5.60937 -1.27846,3.08455 -3.88171,7.92205 -5.78515,10.75 -4.72146,7.01469 -10.15853,16.48262 -15.29688,26.64063 -2.36477,4.67501 -5.17785,9.77218 -6.25195,11.32617 l -1.95312,2.82617 3.37109,2.9082 c 19.26266,16.6145 54.8977,31.62701 82.87305,34.91407 v -0.002 c 37.78232,4.43936 78.43963,-6.52851 111.95312,-30.20117 4.70079,-3.32046 8.68129,-6.14991 8.8457,-6.28711 0.16445,-0.13735 -0.63949,-1.92159 -1.7871,-3.96484 -1.14766,-2.04325 -4.16777,-7.60824 -6.71094,-12.36719 -5.69541,-10.65751 -11.19304,-20.46293 -19.14649,-34.15234 -5.59442,-9.62911 -6.16417,-11.16352 -6.87695,-18.5 l -0.77734,-8 h -57.25 -57.25 c -3.45107,-3.77623 -3.3432,-11.14102 -3.19336,-13.75 -0.16895,-7.2875 -0.23045,-13.40232 -0.13672,-13.58789 0.83879,-1.65744 17.31183,-2.11978 76.46484,-2.13868 l 68.63281,-0.0234 5.25586,-5.25 c 6.80346,-6.79586 12.97657,-16.26378 12.97657,-19.9043 0,-1.5764 -0.95703,-3.80273 -2.14649,-4.99219 -2.09658,-2.09658 -2.60359,-2.13154 -21.75,-1.50195 -10.78189,0.35452 -23.65358,1.33673 -28.60351,2.18164 -4.95005,0.84491 -14.85001,1.75099 -22,2.01367 -7.15004,0.26291 -14.23744,0.68667 -15.75,0.94141 -1.5125,0.25455 -2.75,0.0756 -2.75,-0.39649 8.04347,-1.84219 13.39818,-4.58667 20.75,-8.28711 4.81251,-2.31923 10.99997,-5.56204 13.75,-7.20507 5.78146,-3.45423 20.10907,-14.39537 22.90429,-17.49024 1.83769,-2.03471 2.75765,-2.10937 26.0293,-2.10937 h 24.125 l 3.60156,-3.49805 c 2.28775,-2.2221 4.00985,-5.11833 4.72071,-7.94141 1.96361,-7.79916 3.56002,-7.21524 -21.26172,-7.78515 -21.03508,-0.48299 -22.62958,-0.65278 -26.5,-2.82813 -2.44623,-1.37484 -4.11914,-3.04599 -4.11914,-4.11719 0,-0.99186 -1.13027,-6.15366 -2.51172,-11.4707 -1.3815,-5.31708 -2.32638,-9.8533 -2.09961,-10.08008 19.75177,-0.4862 33.75803,-0.42458 49.23242,-0.75586 15.73614,-0.0207 17.35593,-0.19032 19.41211,-2.02343 2.97861,-2.65546 4.61905,-6.76937 5.48437,-13.75 l 0.71289,-5.75 h -85.11523 -85.11523 v -4.9336 c 0,-2.71404 -0.68615,-8.19989 -1.52539,-12.18945 -1.91139,-9.08644 -1.25352,-9.96409 8.25781,-11.02148 3.72242,-0.41382 43.03767,-0.77628 87.36719,-0.80274 l 80.59961,-0.0527 0.64453,-9.75 c 0.35527,-5.36251 0.64736,-12.08444 0.65039,-14.93946 0.44259,-8.78981 1.32811,-16.91328 1.55859,-25.86914 l -1.69531,-2.58789 -3.17774,2.59571 c -10.09882,8.24685 -22.55857,15.29298 -33.17968,18.76171 -37.17294,12.1403 -55.35083,15.14636 -91.5,15.14258 -20.17731,-0.003 -26.91001,-0.38221 -38.16211,-2.15625 -25.0354,-3.94718 -43.49822,-9.98718 -72.12305,-23.59375 -6.48234,-3.0813 -11.96022,-5.60351 -12.17188,-5.60351 -0.2118,0 -5.48399,-2.4198 -11.71484,-5.37891 -17.21775,-8.17678 -19.58113,-9.14077 -29.75781,-12.11719 -7.03705,-2.05814 -13.699,-2.93992 -18.84375,-2.69922 z"
       transform="scale(0.26458333)"
       id="path931" />
    <path
       id="path937"
       style="color:#000000;font-style:normal;font-variant:normal;font-weight:normal;font-stretch:normal;font-size:medium;line-height:normal;font-family:sans-serif;font-variant-ligatures:normal;font-variant-position:normal;font-variant-caps:normal;font-variant-numeric:normal;font-variant-alternates:normal;font-variant-east-asian:normal;font-feature-settings:normal;font-variation-settings:normal;text-indent:0;text-align:start;text-decoration:none;text-decoration-line:none;text-decoration-style:solid;text-decoration-color:#000000;letter-spacing:normal;word-spacing:normal;text-transform:none;writing-mode:lr-tb;direction:ltr;text-orientation:mixed;dominant-baseline:auto;baseline-shift:baseline;text-anchor:start;white-space:normal;shape-padding:0;shape-margin:0;inline-size:0;clip-rule:nonzero;display:inline;overflow:visible;visibility:visible;opacity:1;isolation:auto;mix-blend-mode:normal;color-interpolation:sRGB;color-interpolation-filters:linearRGB;solid-color:#000000;solid-opacity:1;vector-effect:none;fill:#ffffff;fill-opacity:1;fill-rule:nonzero;stroke:none;stroke-width:0.999999;stroke-linecap:butt;stroke-linejoin:miter;stroke-miterlimit:4;stroke-dasharray:none;stroke-dashoffset:0;stroke-opacity:1;color-rendering:auto;image-rendering:auto;shape-rendering:auto;text-rendering:auto;enable-background:accumulate;stop-color:#000000;stop-opacity:1"
       d="m 344.51562,532.93555 c 77.74081,0 73.80549,-0.34091 77.1543,6.68164 3.56436,7.4745 0.93723,17.30707 -5.48437,20.52148 -3.09986,1.5518 -9.36061,1.70363 -70.90039,1.71875 -47.47742,0.0124 -68.09326,-0.30984 -69.5,-1.08789 -9.11055,-5.03886 -11.32458,-19.89336 -3.8418,-25.7793 2.57699,-2.02718 3.51643,-2.05468 72.57226,-2.05468 z"
       transform="scale(0.26458333)" />
    <path
       id="path929"
       style="color:#000000;font-style:normal;font-variant:normal;font-weight:normal;font-stretch:normal;font-size:medium;line-height:normal;font-family:sans-serif;font-variant-ligatures:normal;font-variant-position:normal;font-variant-caps:normal;font-variant-numeric:normal;font-variant-alternates:normal;font-variant-east-asian:normal;font-feature-settings:normal;font-variation-settings:normal;text-indent:0;text-align:start;text-decoration:none;text-decoration-line:none;text-decoration-style:solid;text-decoration-color:#000000;letter-spacing:normal;word-spacing:normal;text-transform:none;writing-mode:lr-tb;direction:ltr;text-orientation:mixed;dominant-baseline:auto;baseline-shift:baseline;text-anchor:start;white-space:normal;shape-padding:0;shape-margin:0;inline-size:0;clip-rule:nonzero;display:inline;overflow:visible;visibility:visible;opacity:1;isolation:auto;mix-blend-mode:normal;color-interpolation:sRGB;color-interpolation-filters:linearRGB;solid-color:#000000;solid-opacity:1;vector-effect:none;fill:#1b252e;fill-opacity:1;fill-rule:nonzero;stroke:none;stroke-width:0.999999;stroke-linecap:butt;stroke-linejoin:miter;stroke-miterlimit:4;stroke-dasharray:none;stroke-dashoffset:0;stroke-opacity:1;color-rendering:auto;image-rendering:auto;shape-rendering:auto;text-rendering:auto;enable-background:accumulate;stop-color:#000000;stop-opacity:1"
       transform="scale(0.26458333)"
       d="m 471.57031,163.93555 -3.16797,8.25 c -1.743,4.5375 -4.21299,12.075 -5.48828,16.75 -1.27532,4.675 -3.93612,13.9 -5.91406,20.5 -6.79982,22.68984 -19.77405,66.69003 -23.88281,81 -1.10544,3.85001 -2.5987,8.79997 -3.31836,11 -0.71962,2.19998 -2.52649,8.50003 -4.01563,14 -1.48913,5.5 -2.86999,10.5625 -3.07031,11.25 -0.28838,0.9896 -21.64147,1.25 -102.4375,1.25 -99.34198,0 -102.17366,0.0528 -105.90625,1.95703 -4.41184,2.25078 -9.45198,8.8494 -13.51758,17.69531 -2.35302,5.11967 -3.32932,6.25144 -5.82226,6.75 -1.64735,0.32958 -16.37081,0.59766 -32.72071,0.59766 -29.28812,0 -29.77797,0.0349 -33.11132,2.28125 -1.86082,1.25401 -3.9744,3.39148 -4.69727,4.75 -1.79683,3.37678 -1.02131,15.09081 1.22656,18.52148 3.48231,5.31474 4.76526,5.44569 52.77539,5.45703 40.2734,0.009 45.18849,0.19135 54.28321,2.01172 18.19544,3.64199 30.14944,8.12423 60,22.5 32.67913,15.73803 57.01803,23.55096 82.49609,26.48047 4.12718,0.47475 17.8539,0.71298 30.50391,0.5293 17.99523,-0.26136 25.71998,-0.80876 35.5,-2.51563 31.06749,-5.42218 61.00271,-16.60313 81.5,-30.43945 4.95001,-3.34141 9.35051,-6.52618 9.77929,-7.07617 0.42898,-0.55 0.65503,-3.54874 0.50196,-6.66602 -0.30002,-6.10549 0.39137,-7.76398 2.50976,-6.00586 0.73735,0.61195 2.66195,1.07579 4.27539,1.0293 1.61345,-0.0465 17.27718,-0.21059 34.8086,-0.36328 0,0 21.02734,0.17997 31.55224,-0.95845 1.60936,-0.17408 2.59929,-1.93005 3.89893,-2.89507 3.65244,-2.71204 3.6095,-4.20457 3.92773,-9.85742 0.41046,-7.28954 -1.57315,-11.4807 -6.99609,-14.78711 -3.05235,-1.86089 -5.09768,-1.99074 -32.25781,-2.00586 -15.94999,-0.01 -30.01247,-0.28767 -31.25,-0.61914 -2.91634,0.0249 -3.34119,0.21217 -5.94104,-1.49059 -0.47006,-2.81426 -2.38747,-5.42532 -3.75037,-9.28089 -2.34852,-6.64388 -4.74667,-9.93192 -9.32617,-12.7793 -3.65246,-2.27097 -4.41855,-2.33102 -35.90039,-2.82031 -17.69273,-0.275 -32.41431,-0.74521 -32.71289,-1.04493 -0.55431,-0.55623 3.6953,-17.03741 4.89258,-18.9746 0.36249,-0.58659 1.4934,-4.30996 2.51171,-8.27344 1.88826,-7.3491 8.40227,-29.42864 14.51758,-49.20703 1.8706,-6.05 5.40659,-17.975 7.85742,-26.5 2.45084,-8.525 5.53041,-18.875 6.84375,-23 l 2.38672,-7.5 4.86133,0.31836 c 2.67345,0.17521 18.39482,3.027 34.93555,6.33593 32.64007,6.52957 37.44217,7.04564 42.24414,4.53516 5.39973,-2.82301 7.83008,-7.28051 7.83008,-14.36523 0,-11.20397 -2.80291,-12.89385 -30.5,-18.39063 -8.52503,-1.69187 -20.86456,-4.16841 -27.41993,-5.50391 -10.4547,-2.1299 -14.58163,-2.42968 -33.60546,-2.42968 z m 60.89844,287.89062 c 2.55454,0.92565 8.16479,5.70659 15.07227,13.08008 18.99979,20.28163 27.74414,40.4477 27.74414,63.98633 0,6.95217 -0.6512,12.81594 -2.04297,18.37695 -3.58923,14.34142 -12.70127,30.01174 -25.48828,43.83203 -4.09618,4.42719 -6.46875,9.44793 -6.46875,13.69336 0,4.58926 5.90766,12.38107 10.58789,13.96485 8.35098,2.82595 14.07154,-0.29732 24.625,-13.44532 21.95826,-27.3566 30.76021,-51.6467 29.45703,-81.29101 -1.30156,-29.60735 -10.84523,-51.60773 -33.6543,-77.57422 -6.10282,-6.78389 -8.44372,-9.01426 -14.25781,-13.41992 l -5.125,-3.90821 -7.1582,6.15821 c -5.29236,4.66059 -10.13645,10.40543 -13.29102,16.54687 z M 186.86914,432.19336 c -8.46875,-0.95456 -17.88584,6.45316 -31.99414,25.16602 -14.55859,19.31009 -21.20752,35.17328 -24.12891,57.57617 -1.55108,11.89466 -0.8238,28.96338 1.63868,38.5 3.37421,13.06764 10.91541,29.81908 17.81445,39.5664 9.21736,13.02278 18.83427,23.91447 22.53711,25.52735 4.20476,1.83152 7.32688,1.69063 12.27734,-0.55664 7.36702,-3.34424 10.80537,-11.77511 7.88281,-19.33008 -0.89506,-2.31379 -4.98498,-8.15517 -9.08789,-12.98242 -17.10315,-20.1227 -23.64589,-38.45484 -22.18359,-62.15039 0.95138,-15.41628 5.39002,-29.50721 12.5918,-39.97461 4.87087,-8.36693 10.68975,-15.74639 16.47138,-23.17588 7.33947,-9.04743 7.9963,-9.54321 11.11846,-12.80264 1.70253,-5.27248 -10.72362,-14.80941 -14.9375,-15.36328 z M 132.75,684.93555 l -3.64844,2.47851 c -4.33032,2.94252 -6.26367,7.86192 -5.55664,14.13477 0.54032,4.79357 4.57848,10.97524 8.0957,12.39453 1.17971,0.47603 16.31952,0.88553 33.64454,0.9082 29.12454,0.0383 31.8228,-0.10505 35.78711,-1.90429 5.01675,-2.27691 7.21289,-6.40752 7.21289,-13.56836 0,-5.55651 -3.92324,-11.82006 -8.40039,-13.41211 -1.76142,-0.62635 -15.50373,-1.03125 -35.01758,-1.03125 z m 64.66992,54.16406 c -12.60079,-0.28543 -16.15894,-0.044 -19.77734,1.33789 -11.85434,4.52723 -12.68071,21.0492 -1.33789,26.74805 2.87406,1.44385 6.23344,1.74901 19.29492,1.75 16.33519,0.002 18.49765,-0.43079 22.0625,-4.40625 4.909,-5.47442 5.39352,-11.16486 1.58398,-18.59375 -3.03065,-5.90997 -4.75185,-6.44918 -21.82617,-6.83594 z m -9.01562,53.72266 -28.3086,0.30664 c -26.48855,0.28773 -28.48225,0.43532 -30.97851,2.30664 -5.63974,4.22774 -7.51117,13.63173 -4.08008,20.5 1.13163,2.26526 3.33554,4.31485 6.24805,5.80859 3.22144,1.65215 5.49443,2.15324 8,1.76172 1.92499,-0.30093 13.91519,-0.55104 26.64453,-0.55859 l 23.14453,-0.0117 3.01758,-2.81836 c 6.49999,-6.07196 6.55742,-17.05191 0.12304,-23.48633 z m 388.22656,0.12109 c -29.59793,0.007 -30.14779,0.1133 -34.44727,6.63476 -4.03245,6.11638 -1.3863,17.72944 4.9336,21.6504 2.31318,1.43512 6.37256,1.65896 30.51758,1.68164 l 27.84961,0.0254 3.31054,-3.31055 c 7.47179,-7.47179 6.15985,-19.83633 -2.66406,-25.10352 -2.2467,-1.34124 -6.77691,-1.58568 -29.5,-1.57812 z M 591.63867,685.0332 c -5.49211,-0.0754 -12.76141,-6.7e-4 -22.5,0.0899 -37.82211,0.35142 -35.83648,-0.0554 -40.07031,8.24023 -3.69453,7.23897 -0.46978,17.06123 6.61328,20.14453 2.38889,1.03986 10.54186,1.35844 35.40234,1.38867 35.6682,0.0432 36.29106,-0.0521 39.97266,-6.18554 3.37935,-5.62987 3.57225,-9.55185 0.75,-15.32032 -3.2059,-6.55259 -3.69164,-8.13117 -20.16797,-8.35742 z m -46.65625,54.08594 c -12.87757,-0.3654 -17.16561,0.85707 -20.77344,5.92383 -4.84441,6.80334 -2.79718,18.72758 3.83204,22.32422 1.92056,1.04201 5.89636,1.50076 13.24414,1.52343 16.3624,0.0537 20.72875,-1.91021 22.85156,-10.27343 1.48233,-5.8399 -0.1581,-11.61632 -4.4961,-15.82422 -3.45558,-3.35184 -3.47877,-3.35673 -14.6582,-3.67383 z m -54.12304,33.05859 c -0.33381,-0.33384 -1.83831,0.37277 -3.3418,1.57032 -6.52124,5.19413 -21.28907,14.54525 -30.19727,19.12109 -29.16196,14.97948 -55.76171,21.54056 -87.03515,21.46875 -42.49497,-0.0973 -77.36998,-11.95313 -116.77344,-39.70117 -5.01354,-3.53053 -9.21586,-3.00438 -9.2461,1.1582 -0.0101,1.45289 -1.61409,6.46562 -3.5664,11.14063 -13.8929,33.26815 -21.50771,53.43777 -22.98438,60.8789 -2.84621,14.34237 0.0843,30.41939 7.79688,42.77735 5.61547,8.9978 6.10554,9.56816 14.16992,16.41992 7.02694,5.97033 17.12632,11.00792 27.10352,13.51953 3.87756,0.97621 27.44873,1.21677 105,1.07617 l 100,-0.18164 6,-2.33008 c 11.62851,-4.5188 17.90231,-8.53313 26.01367,-16.64453 11.88272,-11.88268 16.90739,-22.70721 18.09375,-38.98242 1.00936,-13.84683 -1.39726,-21.96888 -18.08985,-61.0332 -2.58523,-6.05001 -6.41973,-15.19683 -8.51953,-20.32617 -2.09975,-5.12935 -4.09009,-9.59791 -4.42382,-9.93165 z" />
  </g>
</svg>
