<?xml version="1.0" encoding="UTF-8" standalone="no"?>
<svg
   xmlns:dc="http://purl.org/dc/elements/1.1/"
   xmlns:cc="http://creativecommons.org/ns#"
   xmlns:rdf="http://www.w3.org/1999/02/22-rdf-syntax-ns#"
   xmlns:svg="http://www.w3.org/2000/svg"
   xmlns="http://www.w3.org/2000/svg"
   xmlns:xlink="http://www.w3.org/1999/xlink"
   xmlns:sodipodi="http://sodipodi.sourceforge.net/DTD/sodipodi-0.dtd"
   xmlns:inkscape="http://www.inkscape.org/namespaces/inkscape"
   width="129.85094mm"
   height="203.0433mm"
   viewBox="0 0 129.85094 203.0433"
   version="1.1"
   id="svg8"
   sodipodi:docname="logo.svg"
   inkscape:version="1.0.2 (e86c870879, 2021-01-15)">
  <defs
     id="defs2">
    <linearGradient
       inkscape:collect="always"
       id="linearGradient976">
      <stop
         style="stop-color:#551544;stop-opacity:1"
         offset="0"
         id="stop972" />
      <stop
         style="stop-color:#1b252e;stop-opacity:1"
         offset="1"
         id="stop974" />
    </linearGradient>
    <linearGradient
       inkscape:collect="always"
       xlink:href="#linearGradient976"
       id="linearGradient978"
       x1="352.28519"
       y1="785.90814"
       x2="356.92319"
       y2="456.35739"
       gradientUnits="userSpaceOnUse"
       gradientTransform="translate(-123.31601,-154.23654)" />
  </defs>
  <sodipodi:namedview
     id="base"
     pagecolor="#ffffff"
     bordercolor="#666666"
     borderopacity="1.0"
     inkscape:pageopacity="0.0"
     inkscape:pageshadow="2"
     inkscape:zoom="0.98994949"
     inkscape:cx="563.47368"
     inkscape:cy="200.35077"
     inkscape:document-units="mm"
     inkscape:current-layer="layer1"
     inkscape:document-rotation="0"
     showgrid="false"
     inkscape:window-width="3436"
     inkscape:window-height="1401"
     inkscape:window-x="1920"
     inkscape:window-y="18"
     inkscape:window-maximized="1"
     fit-margin-top="0"
     fit-margin-left="0"
     fit-margin-right="0"
     fit-margin-bottom="0" />
  <metadata
     id="metadata5">
    <rdf:RDF>
      <cc:Work
         rdf:about="">
        <dc:format>image/svg+xml</dc:format>
        <dc:type
           rdf:resource="http://purl.org/dc/dcmitype/StillImage" />
        <dc:title></dc:title>
      </cc:Work>
    </rdf:RDF>
  </metadata>
  <g
     inkscape:label="Ebene 1"
     inkscape:groupmode="layer"
     id="layer1"
     transform="translate(-32.627361,-40.808417)">
    <path
       style="color:#000000;font-style:normal;font-variant:normal;font-weight:normal;font-stretch:normal;font-size:medium;line-height:normal;font-family:sans-serif;font-variant-ligatures:normal;font-variant-position:normal;font-variant-caps:normal;font-variant-numeric:normal;font-variant-alternates:normal;font-variant-east-asian:normal;font-feature-settings:normal;font-variation-settings:normal;text-indent:0;text-align:start;text-decoration:none;text-decoration-line:none;text-decoration-style:solid;text-decoration-color:#000000;letter-spacing:normal;word-spacing:normal;text-transform:none;writing-mode:lr-tb;direction:ltr;text-orientation:mixed;dominant-baseline:auto;baseline-shift:baseline;text-anchor:start;white-space:normal;shape-padding:0;shape-margin:0;inline-size:0;clip-rule:nonzero;display:inline;overflow:visible;visibility:visible;opacity:1;isolation:auto;mix-blend-mode:normal;color-interpolation:sRGB;color-interpolation-filters:linearRGB;solid-color:#000000;solid-opacity:1;vector-effect:none;fill:#000000;fill-opacity:1;fill-rule:nonzero;stroke:none;stroke-width:0.999999;stroke-linecap:butt;stroke-linejoin:miter;stroke-miterlimit:4;stroke-dasharray:none;stroke-dashoffset:0;stroke-opacity:1;color-rendering:auto;image-rendering:auto;shape-rendering:auto;text-rendering:auto;enable-background:accumulate;stop-color:#000000;stop-opacity:1"
       d="m 371.74805,698.62891 c 6.0703,0.10318 11.35858,0.21403 11.75195,0.24804 0.39334,0.0331 2.24471,1.40261 4.11523,3.04493 4.76595,4.18454 6.3015,10.02637 4.19532,15.96484 -1.73008,4.87789 -3.60377,7.00435 -8.32032,9.44336 -2.23491,1.15574 -5.86517,1.60547 -12.94335,1.60547 -8.21345,0 -10.57561,-0.3715 -14.30079,-2.25 -7.72108,-3.89352 -9.84169,-11.87791 -5.55468,-20.91211 2.70516,-5.70074 7.6364,-7.37282 21.05664,-7.14453 z"
       transform="scale(0.26458333)"
       id="path952" />
    <path
       id="path931"
       style="color:#000000;font-style:normal;font-variant:normal;font-weight:normal;font-stretch:normal;font-size:medium;line-height:normal;font-family:sans-serif;font-variant-ligatures:normal;font-variant-position:normal;font-variant-caps:normal;font-variant-numeric:normal;font-variant-alternates:normal;font-variant-east-asian:normal;font-feature-settings:normal;font-variation-settings:normal;text-indent:0;text-align:start;text-decoration:none;text-decoration-line:none;text-decoration-style:solid;text-decoration-color:#000000;letter-spacing:normal;word-spacing:normal;text-transform:none;writing-mode:lr-tb;direction:ltr;text-orientation:mixed;dominant-baseline:auto;baseline-shift:baseline;text-anchor:start;white-space:normal;shape-padding:0;shape-margin:0;inline-size:0;clip-rule:nonzero;display:inline;overflow:visible;visibility:visible;opacity:1;isolation:auto;mix-blend-mode:normal;color-interpolation:sRGB;color-interpolation-filters:linearRGB;solid-color:#000000;solid-opacity:1;vector-effect:none;fill:url(#linearGradient978);fill-opacity:1;fill-rule:nonzero;stroke:none;stroke-width:0.999999;stroke-linecap:butt;stroke-linejoin:miter;stroke-miterlimit:4;stroke-dasharray:none;stroke-dashoffset:0;stroke-opacity:1;color-rendering:auto;image-rendering:auto;shape-rendering:auto;text-rendering:auto;enable-background:accumulate;stop-color:#000000;stop-opacity:1"
       d="M 98.193359 259.4668 C 97.505084 259.4617 96.838406 259.47382 96.195312 259.50391 C 91.050563 259.74462 87.422929 261.1081 86.449219 263.54102 C 86.084159 264.45317 85.176384 272.32715 84.433594 281.03711 C 84.200734 290.85187 84.925188 306.0254 85.423828 313.79102 C 86.628708 331.93778 88.493993 345.0071 92.476562 363.19922 C 99.260962 394.18991 114.46244 429.86326 132.96875 458.22461 C 133.79374 459.48894 135.76996 462.70024 137.36133 465.36133 C 142.31063 473.63762 163.30669 501.90161 168.62305 507.44531 C 170.97105 509.89373 175.81047 519.27848 176.96289 523.61719 C 177.86846 527.02719 177.85868 529.02117 176.92188 532.36719 C 176.25457 534.75067 175.40064 536.69922 175.02344 536.69922 C 174.64613 536.69922 173.29019 539.22404 172.01172 542.30859 C 170.73326 545.39314 168.13 550.23064 166.22656 553.05859 C 161.5051 560.07328 156.06804 569.54121 150.92969 579.69922 C 148.56492 584.37423 145.75183 589.4714 144.67773 591.02539 L 142.72461 593.85156 L 146.0957 596.75977 C 165.35836 613.37427 200.9934 628.38677 228.96875 631.67383 L 228.96875 631.67188 C 266.75107 636.11123 307.40839 625.14336 340.92188 601.4707 C 345.62266 598.15024 349.60317 595.32079 349.76758 595.18359 C 349.93203 595.04624 349.12808 593.262 347.98047 591.21875 C 346.83281 589.1755 343.8127 583.61051 341.26953 578.85156 C 335.57412 568.19405 330.0765 558.38863 322.12305 544.69922 C 316.52863 535.07011 315.95887 533.5357 315.24609 526.19922 L 314.46875 518.19922 L 257.21875 518.19922 L 199.96875 518.19922 C 196.51768 514.42299 196.62555 507.0582 196.77539 504.44922 C 196.60644 497.16172 196.54494 491.0469 196.63867 490.86133 C 197.47746 489.20389 213.95051 488.74156 273.10352 488.72266 L 341.73633 488.69922 L 346.99219 483.44922 C 353.79565 476.65336 359.96875 467.18544 359.96875 463.54492 C 359.96875 461.96852 359.01173 459.74219 357.82227 458.55273 C 355.72569 456.45615 355.21868 456.42119 336.07227 457.05078 C 325.29038 457.4053 312.41868 458.38751 307.46875 459.23242 C 302.5187 460.07733 292.61874 460.98341 285.46875 461.24609 C 278.31871 461.509 271.23131 461.93276 269.71875 462.1875 C 268.20625 462.44205 266.96875 462.26311 266.96875 461.79102 C 275.01222 459.94883 280.36693 457.20435 287.71875 453.50391 C 292.53126 451.18468 298.71872 447.94186 301.46875 446.29883 C 307.25021 442.8446 321.57783 431.90346 324.37305 428.80859 C 326.21074 426.77388 327.13069 426.69922 350.40234 426.69922 L 374.52734 426.69922 L 378.12891 423.20117 C 380.41666 420.97907 382.13875 418.08285 382.84961 415.25977 C 384.81322 407.46061 386.40963 408.04452 361.58789 407.47461 C 340.55281 406.99162 338.95831 406.82183 335.08789 404.64648 C 332.64166 403.27164 330.96875 401.6005 330.96875 400.5293 C 330.96875 399.53744 329.83848 394.37563 328.45703 389.05859 C 327.07553 383.74151 326.13065 379.2053 326.35742 378.97852 C 346.10919 378.49232 360.11545 378.55394 375.58984 378.22266 C 391.32598 378.20196 392.94577 378.03233 395.00195 376.19922 C 397.98056 373.54376 399.62101 369.42985 400.48633 362.44922 L 401.19922 356.69922 L 316.08398 356.69922 L 230.96875 356.69922 L 230.96875 351.76562 C 230.96875 349.05159 230.2826 343.56573 229.44336 339.57617 C 227.53197 330.48973 228.18984 329.61208 237.70117 328.55469 C 241.42359 328.14087 280.73884 327.77841 325.06836 327.75195 L 405.66797 327.69922 L 406.3125 317.94922 C 406.66777 312.58671 406.95986 305.86479 406.96289 303.00977 C 407.40548 294.21996 408.291 286.09648 408.52148 277.14062 L 406.82617 274.55273 L 403.64844 277.14844 C 393.54962 285.39529 381.08986 292.44143 370.46875 295.91016 C 333.29581 308.05046 315.11792 311.05651 278.96875 311.05273 C 258.79144 311.04973 252.05874 310.67052 240.80664 308.89648 C 215.77124 304.9493 197.30842 298.9093 168.68359 285.30273 C 162.20125 282.22143 156.72338 279.69922 156.51172 279.69922 C 156.29992 279.69922 151.02772 277.27942 144.79688 274.32031 C 127.57913 266.14353 125.21574 265.17954 115.03906 262.20312 C 108.88164 260.40225 103.01129 259.50246 98.193359 259.4668 z M 246.69727 378.69727 C 298.07007 378.72802 295.42331 379.23613 298.35352 385.38086 C 301.91788 392.85536 299.29074 402.68793 292.86914 405.90234 C 289.76928 407.45414 283.50853 407.60597 221.96875 407.62109 C 174.49133 407.63349 153.87549 407.31125 152.46875 406.5332 C 143.3582 401.49434 141.14417 386.63985 148.62695 380.75391 C 151.20394 378.72673 152.14339 378.69922 221.19922 378.69922 C 230.91682 378.69922 239.35829 378.69287 246.69727 378.69727 z "
       transform="matrix(0.26458333,0,0,0.26458333,32.627361,40.808417)" />
    <path
       id="path929"
       style="color:#000000;font-style:normal;font-variant:normal;font-weight:normal;font-stretch:normal;font-size:medium;line-height:normal;font-family:sans-serif;font-variant-ligatures:normal;font-variant-position:normal;font-variant-caps:normal;font-variant-numeric:normal;font-variant-alternates:normal;font-variant-east-asian:normal;font-feature-settings:normal;font-variation-settings:normal;text-indent:0;text-align:start;text-decoration:none;text-decoration-line:none;text-decoration-style:solid;text-decoration-color:#000000;letter-spacing:normal;word-spacing:normal;text-transform:none;writing-mode:lr-tb;direction:ltr;text-orientation:mixed;dominant-baseline:auto;baseline-shift:baseline;text-anchor:start;white-space:normal;shape-padding:0;shape-margin:0;inline-size:0;clip-rule:nonzero;display:inline;overflow:visible;visibility:visible;opacity:1;isolation:auto;mix-blend-mode:normal;color-interpolation:sRGB;color-interpolation-filters:linearRGB;solid-color:#000000;solid-opacity:1;vector-effect:none;fill:#1b252e;fill-opacity:1;fill-rule:nonzero;stroke:none;stroke-width:0.999999;stroke-linecap:butt;stroke-linejoin:miter;stroke-miterlimit:4;stroke-dasharray:none;stroke-dashoffset:0;stroke-opacity:1;color-rendering:auto;image-rendering:auto;shape-rendering:auto;text-rendering:auto;enable-background:accumulate;stop-color:#000000;stop-opacity:1"
       transform="scale(0.26458333)"
       d="m 475.88781,154.23654 -7.48547,17.94901 c -1.743,4.5375 -4.21299,12.075 -5.48828,16.75 -1.27532,4.675 -3.93612,13.9 -5.91406,20.5 -6.79982,22.68984 -19.77405,66.69003 -23.88281,81 -1.10544,3.85001 -2.5987,8.79997 -3.31836,11 -0.71962,2.19998 -2.52649,8.50003 -4.01563,14 -1.48913,5.5 -2.86999,10.5625 -3.07031,11.25 -0.28838,0.9896 -21.64147,1.25 -102.4375,1.25 -99.34198,0 -102.17366,0.0528 -105.90625,1.95703 -4.41184,2.25078 -9.45198,8.8494 -13.51758,17.69531 -2.35302,5.11967 -3.32932,6.25144 -5.82226,6.75 -1.64735,0.32958 -16.37081,0.59766 -32.72071,0.59766 -29.28812,0 -29.77797,0.0349 -33.11132,2.28125 -1.86082,1.25401 -3.9744,3.39148 -4.69727,4.75 -1.79683,3.37678 -1.02131,15.09081 1.22656,18.52148 3.48231,5.31474 4.76526,5.44569 52.77539,5.45703 40.2734,0.009 45.18849,0.19135 54.28321,2.01172 18.19544,3.64199 30.14944,8.12423 60,22.5 32.67913,15.73803 57.01803,23.55096 82.49609,26.48047 4.12718,0.47475 17.8539,0.71298 30.50391,0.5293 17.99523,-0.26136 25.71998,-0.80876 35.5,-2.51563 31.06749,-5.42218 61.00271,-16.60313 81.5,-30.43945 4.95001,-3.34141 9.35051,-6.52618 9.77929,-7.07617 0.42898,-0.55 0.65503,-3.54874 0.50196,-6.66602 -0.30002,-6.10549 0.39137,-7.76398 2.50976,-6.00586 0.73735,0.61195 2.66195,1.07579 4.27539,1.0293 1.61345,-0.0465 17.27718,-0.21059 34.8086,-0.36328 0,0 21.02734,0.17997 31.55224,-0.95845 1.60936,-0.17408 2.59929,-1.93005 3.89893,-2.89507 3.65244,-2.71204 3.6095,-4.20457 3.92773,-9.85742 0.41046,-7.28954 -1.57315,-11.4807 -6.99609,-14.78711 -3.05235,-1.86089 -5.09768,-1.99074 -32.25781,-2.00586 -15.94999,-0.01 -30.01247,-0.28767 -31.25,-0.61914 -2.91634,0.0249 -3.34119,0.21217 -5.94104,-1.49059 -0.47006,-2.81426 -2.38747,-5.42532 -3.75037,-9.28089 -2.34852,-6.64388 -4.74667,-9.93192 -9.32617,-12.7793 -3.65246,-2.27097 -4.41855,-2.33102 -35.90039,-2.82031 -17.69273,-0.275 -32.41431,-0.74521 -32.71289,-1.04493 -0.55431,-0.55623 3.6953,-17.03741 4.89258,-18.9746 0.36249,-0.58659 1.4934,-4.30996 2.51171,-8.27344 1.88826,-7.3491 8.40227,-29.42864 14.51758,-49.20703 1.8706,-6.05 5.40659,-17.975 7.85742,-26.5 2.45084,-8.525 5.53041,-18.875 6.84375,-23 l 2.38672,-7.5 4.86133,0.31836 c 2.67345,0.17521 18.39482,3.027 34.93555,6.33593 32.64007,6.52957 37.44217,7.04564 42.24414,4.53516 5.39973,-2.82301 7.83008,-7.28051 7.83008,-14.36523 0,-11.20397 -2.80291,-12.89385 -30.5,-18.39063 -8.52503,-1.69187 -20.86456,-4.16841 -27.41993,-5.50391 -7.43437,-2.57663 -36.54842,-9.07829 -50.97742,-12.12869 z m 56.58094,297.58963 c 2.55454,0.92565 8.16479,5.70659 15.07227,13.08008 18.99979,20.28163 27.74414,40.4477 27.74414,63.98633 0,6.95217 -0.6512,12.81594 -2.04297,18.37695 -3.58923,14.34142 -12.70127,30.01174 -25.48828,43.83203 -4.09618,4.42719 -6.46875,9.44793 -6.46875,13.69336 0,4.58926 5.90766,12.38107 10.58789,13.96485 8.35098,2.82595 14.07154,-0.29732 24.625,-13.44532 21.95826,-27.3566 30.76021,-51.6467 29.45703,-81.29101 -1.30156,-29.60735 -10.84523,-51.60773 -33.6543,-77.57422 -6.10282,-6.78389 -8.44372,-9.01426 -14.25781,-13.41992 l -5.125,-3.90821 -7.1582,6.15821 c -5.29236,4.66059 -10.13645,10.40543 -13.29102,16.54687 z M 186.86914,432.19336 c -8.46875,-0.95456 -17.88584,6.45316 -31.99414,25.16602 -14.55859,19.31009 -21.20752,35.17328 -24.12891,57.57617 -1.55108,11.89466 -0.8238,28.96338 1.63868,38.5 3.37421,13.06764 10.91541,29.81908 17.81445,39.5664 9.21736,13.02278 18.83427,23.91447 22.53711,25.52735 4.20476,1.83152 7.32688,1.69063 12.27734,-0.55664 7.36702,-3.34424 10.80537,-11.77511 7.88281,-19.33008 -0.89506,-2.31379 -4.98498,-8.15517 -9.08789,-12.98242 -17.10315,-20.1227 -23.64589,-38.45484 -22.18359,-62.15039 0.95138,-15.41628 5.39002,-29.50721 12.5918,-39.97461 4.87087,-8.36693 10.68975,-15.74639 16.47138,-23.17588 7.33947,-9.04743 7.9963,-9.54321 11.11846,-12.80264 1.70253,-5.27248 -10.72362,-14.80941 -14.9375,-15.36328 z M 132.75,684.93555 l -3.64844,2.47851 c -4.33032,2.94252 -6.26367,7.86192 -5.55664,14.13477 0.54032,4.79357 4.57848,10.97524 8.0957,12.39453 1.17971,0.47603 16.31952,0.88553 33.64454,0.9082 29.12454,0.0383 31.8228,-0.10505 35.78711,-1.90429 5.01675,-2.27691 7.21289,-6.40752 7.21289,-13.56836 0,-5.55651 -3.92324,-11.82006 -8.40039,-13.41211 -1.76142,-0.62635 -15.50373,-1.03125 -35.01758,-1.03125 z m 64.66992,54.16406 c -12.60079,-0.28543 -16.15894,-0.044 -19.77734,1.33789 -11.85434,4.52723 -12.68071,21.0492 -1.33789,26.74805 2.87406,1.44385 6.23344,1.74901 19.29492,1.75 16.33519,0.002 18.49765,-0.43079 22.0625,-4.40625 4.909,-5.47442 5.39352,-11.16486 1.58398,-18.59375 -3.03065,-5.90997 -4.75185,-6.44918 -21.82617,-6.83594 z m -9.01562,53.72266 -28.3086,0.30664 c -26.48855,0.28773 -28.48225,0.43532 -30.97851,2.30664 -5.63974,4.22774 -7.51117,13.63173 -4.08008,20.5 1.13163,2.26526 3.33554,4.31485 6.24805,5.80859 3.22144,1.65215 5.49443,2.15324 8,1.76172 1.92499,-0.30093 13.91519,-0.55104 26.64453,-0.55859 l 23.14453,-0.0117 3.01758,-2.81836 c 6.49999,-6.07196 6.55742,-17.05191 0.12304,-23.48633 z m 388.22656,0.12109 c -29.59793,0.007 -30.14779,0.1133 -34.44727,6.63476 -4.03245,6.11638 -1.3863,17.72944 4.9336,21.6504 2.31318,1.43512 6.37256,1.65896 30.51758,1.68164 l 27.84961,0.0254 3.31054,-3.31055 c 7.47179,-7.47179 6.15985,-19.83633 -2.66406,-25.10352 -2.2467,-1.34124 -6.77691,-1.58568 -29.5,-1.57812 z M 591.63867,685.0332 c -5.49211,-0.0754 -12.76141,-6.7e-4 -22.5,0.0899 -37.82211,0.35142 -35.83648,-0.0554 -40.07031,8.24023 -3.69453,7.23897 -0.46978,17.06123 6.61328,20.14453 2.38889,1.03986 10.54186,1.35844 35.40234,1.38867 35.6682,0.0432 36.29106,-0.0521 39.97266,-6.18554 3.37935,-5.62987 3.57225,-9.55185 0.75,-15.32032 -3.2059,-6.55259 -3.69164,-8.13117 -20.16797,-8.35742 z m -46.65625,54.08594 c -12.87757,-0.3654 -17.16561,0.85707 -20.77344,5.92383 -4.84441,6.80334 -2.79718,18.72758 3.83204,22.32422 1.92056,1.04201 5.89636,1.50076 13.24414,1.52343 16.3624,0.0537 20.72875,-1.91021 22.85156,-10.27343 1.48233,-5.8399 -0.1581,-11.61632 -4.4961,-15.82422 -3.45558,-3.35184 -3.47877,-3.35673 -14.6582,-3.67383 z m -54.12304,33.05859 c -0.33381,-0.33384 -1.83831,0.37277 -3.3418,1.57032 -6.52124,5.19413 -21.28907,14.54525 -30.19727,19.12109 -29.16196,14.97948 -55.76171,21.54056 -87.03515,21.46875 -42.49497,-0.0973 -77.36998,-11.95313 -116.77344,-39.70117 -5.01354,-3.53053 -9.21586,-3.00438 -9.2461,1.1582 -0.0101,1.45289 -1.61409,6.46562 -3.5664,11.14063 -13.8929,33.26815 -21.50771,53.43777 -22.98438,60.8789 -2.84621,14.34237 0.0843,30.41939 7.79688,42.77735 5.61547,8.9978 6.10554,9.56816 14.16992,16.41992 7.02694,5.97033 17.12632,11.00792 27.10352,13.51953 3.87756,0.97621 27.44873,1.21677 105,1.07617 l 100,-0.18164 6,-2.33008 c 11.62851,-4.5188 17.90231,-8.53313 26.01367,-16.64453 11.88272,-11.88268 16.90739,-22.70721 18.09375,-38.98242 1.00936,-13.84683 -1.39726,-21.96888 -18.08985,-61.0332 -2.58523,-6.05001 -6.41973,-15.19683 -8.51953,-20.32617 -2.09975,-5.12935 -4.09009,-9.59791 -4.42382,-9.93165 z"
       sodipodi:nodetypes="ccssssssssscsssccsscscsccsscsssccccssscscsscccsssscccssssssssccccccsssssssssccccccsscsssscssscsssccsssscccccsssccssssscsscssssssscsssssscscssssscccsssss" />
  </g>
</svg>
